Coordinates
version=1
nRows=17
nColumns=36
inDegrees=yes

Units are S.I. units (second, meters, Newtons, ...)
If the header above contains a line with 'inDegrees', this indicates whether rotational values are in degrees (yes) or radians (no).

endheader
time	pelvis_tilt	pelvis_list	pelvis_rotation	pelvis_tx	pelvis_ty	pelvis_tz	hip_flexion_r	hip_adduction_r	hip_rotation_r	knee_angle_r	knee_angle_r_beta	ankle_angle_r	subtalar_angle_r	mtp_angle_r	hip_flexion_l	hip_adduction_l	hip_rotation_l	knee_angle_l	knee_angle_l_beta	ankle_angle_l	subtalar_angle_l	mtp_angle_l	lumbar_extension	lumbar_bending	lumbar_rotation	arm_flex_r	arm_add_r	arm_rot_r	elbow_flex_r	pro_sup_r	arm_flex_l	arm_add_l	arm_rot_l	elbow_flex_l	pro_sup_l
      8.68333330	      1.11127463	     -3.21855817	     -6.92981977	      0.01548284	      0.95031993	     -0.03528363	     39.11328243	     -3.67300784	     -7.97969794	     10.74980506	      0.18761949	      0.70051429	     -1.22304345	     -7.49999987	     17.00980840	      4.02489562	      4.42565392	     37.12584926	      0.64796831	     17.15351759	     -9.91379964	     -7.49999987	    -14.02324804	     -1.04141611	      0.91076927	     44.43802556	     12.34814644	     49.89453449	    119.24700049	     93.81665924	     61.75842476	      5.52721131	     68.53443334	    121.69378520	     67.76687400
      8.70000000	      1.43147392	     -3.34493957	     -6.62190559	      0.01540581	      0.94506247	     -0.03406198	     39.20548267	     -3.69510304	     -8.00782922	     10.61964758	      0.18534782	      1.08956348	     -1.09471975	     -7.49999987	     18.00255404	      3.93517254	      4.48729760	     39.64945427	      0.69201352	     21.30407442	     -8.42521338	     -7.49999987	    -14.56721280	     -1.09639284	      0.80991137	     45.02666544	     12.59033369	     51.26601181	    119.63575769	     94.14345404	     62.27309854	      5.62308999	     68.75731195	    121.68367534	     67.78848521
      8.71666670	      1.50907771	     -3.23947438	     -6.32029322	      0.01536338	      0.93822204	     -0.03451311	     39.65607670	     -3.88424625	     -8.06143206	     10.33139802	      0.18031691	      1.42258803	     -0.84079652	     -7.49999987	     19.22820071	      4.08180458	      4.34727357	     41.88541397	      0.73103838	     24.28331767	     -7.89672985	     -7.49999987	    -14.92060939	     -1.30878475	      0.76008333	     45.28790579	     12.74388945	     51.50416140	    119.61358356	     94.33547791	     62.76148013	      5.74761394	     68.72690961	    121.65778074	     67.75634392
      8.73333330	      1.48881730	     -3.13622865	     -6.09803939	      0.01706560	      0.93140187	     -0.03423823	     40.23179230	     -4.03173367	     -7.86564455	     10.00675073	      0.17465075	      1.81978648	     -0.41674326	     -7.49999987	     20.02392834	      4.31392777	      4.41015872	     43.66590687	      0.76211385	     27.70133863	     -6.99255559	     -7.49999987	    -15.15047805	     -1.52188152	      0.95044147	     45.52229067	     12.73427001	     52.02366974	    119.53827451	     94.51946149	     62.78206042	      6.05914198	     69.06676329	    121.64506882	     67.72064663
      8.75000000	      1.40702614	     -3.05077834	     -5.99457399	      0.01433139	      0.92467404	     -0.03360320	     40.96920647	     -4.09344411	     -7.90374396	      9.88929012	      0.17260067	      1.89938114	     -0.56292612	     -7.49999987	     21.54661165	      4.41901694	      4.14372870	     46.13695867	      0.80524184	     28.78882070	     -7.49669505	     -7.49999987	    -15.45602487	     -1.59406274	      1.34184052	     45.89673748	     12.90250286	     52.89691956	    119.56118473	     93.53186138	     62.82935746	      6.18808134	     69.12066231	    121.63368535	     67.30454398
      8.76666670	      1.34075005	     -2.91336916	     -5.93933012	      0.01494656	      0.91817200	     -0.03386500	     41.51876365	     -4.21215011	     -7.95434035	      9.44547794	      0.16485469	      2.00127049	     -0.66444739	     -7.49999987	     22.56005960	      4.55239591	      3.80430167	     48.44085048	      0.84545233	     30.00669977	     -7.65378020	     -7.49999987	    -15.94616506	     -1.66985784	      1.57603909	     46.26908750	     12.53232654	     53.27723242	    119.47374392	     92.72740709	     63.01517674	      6.29181816	     69.45240083	    121.90111835	     66.97181354
      8.78333330	      1.46830933	     -2.93350885	     -5.91029050	      0.01568410	      0.90926191	     -0.03261109	     41.86824057	     -4.19211853	     -8.52078115	      9.08804082	      0.15861623	      1.55959730	     -0.71997620	     -7.49999987	     22.79260624	      4.47052364	      3.06840063	     50.70689269	      0.88500223	     29.13730915	     -8.03035186	     -7.49999987	    -16.38132539	     -1.57216094	      1.81609239	     46.64879151	     12.19942405	     52.62751519	    119.03330877	     92.60457426	     63.13187039	      6.32509400	     69.46659842	    122.00199275	     66.96483655
      8.80000000	      1.49556325	     -2.99778334	     -5.83461785	      0.01397586	      0.90286088	     -0.03308438	     42.26923004	     -4.16947604	     -8.90946498	      8.30303420	      0.14491528	      0.66669873	     -0.68934819	     -7.49999987	     23.57453792	      4.53959699	      2.84204524	     52.65090523	      0.91893165	     28.70214624	     -8.56291157	     -7.49999987	    -16.83289536	     -1.33318995	      1.96843290	     46.70678669	     12.18494227	     52.57368077	    118.94457068	     91.51160856	     62.98687373	      6.22754400	     69.53271073	    122.25545098	     66.58519071
      8.81666670	      1.53469748	     -2.80665433	     -5.50288259	      0.01454402	      0.89559927	     -0.03323485	     42.49739204	     -4.48132837	     -8.95377763	      7.43562569	      0.12977615	      0.68665401	     -0.81614177	     -7.49999987	     24.50554995	      4.88377078	      2.83112059	     54.36738197	      0.94888982	     28.31457780	     -9.75519967	     -7.49999987	    -17.44509650	     -1.39142387	      2.12163553	     46.82864536	     12.15876172	     53.51446579	    119.48956922	     92.04510372	     63.38924761	      6.46565637	     70.00033576	    122.43036739	     66.75019226
      8.83333330	      1.29162680	     -2.62280615	     -5.48034177	      0.01487612	      0.88988698	     -0.03263509	     43.01715249	     -4.57367859	     -8.63276104	      6.88821673	      0.12022206	      0.44727945	     -0.78749525	     -7.49999987	     25.50398463	      5.14595763	      2.78170983	     55.86165267	      0.97496976	     29.56048459	     -9.84309783	     -7.49999987	    -17.76232509	     -1.49509642	      2.39354204	     46.29176316	     12.09206277	     53.87504492	    119.79058243	     91.29040478	     63.09416355	      6.61712232	     70.45539018	    122.92486963	     66.55413686
      8.85000000	      1.21223783	     -2.39923034	     -5.38797143	      0.01280151	      0.88322454	     -0.03246954	     43.37298071	     -4.67451686	     -8.11797357	      6.36023669	      0.11100707	      0.27946435	     -0.90177994	     -7.49999987	     26.76566658	      5.37425076	      2.66181163	     57.45184594	      1.00272387	     30.41383213	    -10.16600551	     -7.49999987	    -18.15545684	     -1.80058993	      2.80870627	     45.86805034	     11.98555189	     54.03216425	    120.33253138	     95.05214486	     63.16763089	      7.05468911	     71.33054548	    122.91824661	     67.62423300
      8.86666670	      1.22999303	     -1.98483996	     -5.02446845	      0.01229269	      0.87618210	     -0.03392217	     43.55844221	     -5.23831465	     -7.77728504	      5.61783342	      0.09804969	      0.84933696	     -0.63055967	     -7.49999987	     27.88253798	      6.05067473	      2.91548535	     59.24518623	      1.03402357	     32.20222194	    -10.44636711	     -7.49999987	    -18.58703566	     -2.14795778	      2.57786268	     45.56727756	     12.15168624	     54.50883668	    120.45481353	     95.11744945	     63.25264027	      7.06355570	     71.71888226	    123.05903538	     67.65714061
      8.88333330	      1.02912527	     -1.75595649	     -4.96433292	      0.01332922	      0.86936905	     -0.03333157	     43.94087871	     -5.41778069	     -7.41682530	      5.07500268	      0.08857551	      0.92538634	     -0.23910710	     -7.49999987	     28.17865409	      6.42752294	      3.02409129	     60.39154034	      1.05403122	     34.34343392	     -9.79467837	     -7.49999987	    -18.76580492	     -2.35226301	      2.62036800	     45.25072740	     12.24410823	     55.21086107	    120.73514131	     95.19376988	     63.04199420	      7.11077869	     72.08536669	    123.11384175	     67.67252570
      8.90000000	      0.87766307	     -1.75275664	     -4.96304774	      0.01225127	      0.86403256	     -0.03281596	     44.44971225	     -5.40247218	     -7.06240132	      5.13894623	      0.08969153	      1.24065310	     -0.53198823	     -7.49999987	     29.55582465	      6.44437387	      3.00996002	     62.00816032	      1.08224656	     34.40667403	     -9.99488885	     -7.49999987	    -19.17198774	     -2.34284479	      2.74116206	     45.22782682	     12.52993315	     56.59570388	    121.11570221	     93.87662433	     62.88943895	      7.23664570	     72.49670778	    123.24329284	     67.23255218
      8.91666670	      0.90190209	     -1.75338608	     -5.10962456	      0.01243153	      0.85492195	     -0.03212829	     44.67960261	     -5.26765521	     -6.46422497	      5.32190662	      0.09288479	      2.00881244	     -0.75968497	     -7.49999987	     30.05155809	      6.41743507	      2.95588864	     63.66006068	      1.11107766	     34.98558899	    -10.44063178	     -7.49999987	    -19.53158602	     -2.37096781	      2.84145312	     45.23973955	     12.84456289	     57.59498868	    121.33134458	     94.01425703	     62.94450924	      7.33283465	     72.77844505	    123.17504779	     67.25979467
      8.93333330	      0.60505084	     -1.83269300	     -5.20522046	      0.01322761	      0.85020431	     -0.03230063	     45.30136675	     -5.11028213	     -6.25585951	      5.85046948	      0.10210996	      1.99669093	     -1.14722515	     -7.49999987	     30.64120921	      6.30884364	      2.71149622	     65.20979365	      1.13812560	     34.94331057	    -10.85580777	     -7.49999987	    -19.49299540	     -2.18657658	      2.90398703	     45.07359179	     13.03258415	     58.72870615	    121.28159930	     93.02559922	     62.76191849	      7.25327544	     72.97648434	    123.06433455	     66.94849312
      8.95000000	      0.82875677	     -1.94573526	     -5.44084136	      0.01506533	      0.84412777	     -0.03208973	     45.36908885	     -4.85992092	     -5.89095775	      6.22053428	      0.10856880	      2.16612941	     -1.46341801	     -7.49999987	     30.90880650	      6.24153879	      2.26310753	     66.55992598	      1.16168986	     34.64721374	    -10.75801222	     -7.49999987	    -20.01177604	     -2.11115710	      2.89350869	     45.02839450	     13.17715378	     59.70315619	    121.33786414	     93.17392556	     62.98497662	      6.99515915	     73.16575204	    122.94098365	     66.95879755
